HIERARCHY
ROOT Hips
{
	OFFSET 0.000000 0.000000 0.000000
	CHANNELS 6 Xposition Yposition Zposition Zrotation Yrotation Xrotation 
	JOINT LHipJoint
	{
		OFFSET 0.000000 0.000000 0.000000
		CHANNELS 3 Zrotation Yrotation Xrotation
		JOINT LeftUpLeg
		{
			OFFSET 1.363060 -1.794630 0.839290
			CHANNELS 3 Zrotation Yrotation Xrotation
			JOINT LeftLeg
			{
				OFFSET 2.448110 -6.726130 0.000000
				CHANNELS 3 Zrotation Yrotation Xrotation
				JOINT LeftFoot
				{
					OFFSET 2.562200 -7.039590 0.000000
					CHANNELS 3 Zrotation Yrotation Xrotation
					JOINT LeftToeBase
					{
						OFFSET 0.157640 -0.433110 2.322550
						CHANNELS 3 Zrotation Yrotation Xrotation
						End Site
						{
							OFFSET 0.000000 0.000000 0.000000
						}
					}
				}
			}
		}
	}
	JOINT RHipJoint
	{
		OFFSET 0.000000 0.000000 0.000000
		CHANNELS 3 Zrotation Yrotation Xrotation
		JOINT RightUpLeg
		{
			OFFSET -1.305520 -1.794630 0.839290
			CHANNELS 3 Zrotation Yrotation Xrotation
			JOINT RightLeg
			{
				OFFSET -2.542530 -6.985550 0.000000
				CHANNELS 3 Zrotation Yrotation Xrotation
				JOINT RightFoot
				{
					OFFSET -2.568260 -7.056230 0.000000
					CHANNELS 3 Zrotation Yrotation Xrotation
					JOINT RightToeBase
					{
						OFFSET -0.164730 -0.452590 2.363150
						CHANNELS 3 Zrotation Yrotation Xrotation
						End Site
						{
							OFFSET 0.000000 0.000000 0.000000
						}
					}
				}
			}
		}
	}
}
MOTION
Frames: 14
Frame Time: 0.008333
4.830066 17.361404 1.347299 9.570455 -78.012958 10.119618 -10.563264 0.228078 0.210190 -9.120823 1.430740 -20.737915 -2.306501 -1.160064 -2.791381 0.349618 6.857453 4.835959 2.265200 0.000000 -38.030200 9.903857 0.324451 -2.214436 1.462385 -10.908389 -13.859395 1.857819 1.322845 -5.904678 -1.597173 -11.897990 8.323514 -4.394700 0.000000 -63.353600
4.826011 17.361951 1.334563 9.217636 -77.264382 10.109029 -10.566897 0.243838 0.318952 -8.964541 1.054219 -20.387128 -2.286667 -1.150610 -2.779012 0.337208 6.712716 4.949362 2.229500 0.000000 -38.191600 9.914224 0.255701 -2.269635 1.492458 -11.244231 -13.310231 1.825795 1.310236 -5.902469 -1.675814 -12.278256 8.174265 -4.475100 0.000000 -63.196300
4.821199 17.362318 1.321352 8.915623 -76.529055 10.042991 -10.565581 0.262987 0.432372 -8.813870 0.666769 -20.032047 -2.266962 -1.141509 -2.764316 0.325898 6.586599 5.057315 2.198800 0.000000 -38.346400 9.928284 0.186089 -2.315908 1.511825 -11.558817 -12.754958 1.790779 1.298525 -5.910790 -1.759809 -12.670014 8.030140 -4.556001 0.000000 -63.035600
4.815406 17.362612 1.307833 8.653906 -75.802431 9.937945 -10.560297 0.286397 0.551000 -8.672045 0.278714 -19.674197 -2.249329 -1.133968 -2.764635 0.316248 6.461112 5.173447 2.167400 -0.000000 -38.490800 9.945809 0.115331 -2.351332 1.522726 -11.852381 -12.200664 1.752923 1.288329 -5.929252 -1.849625 -13.077934 7.892942 -4.639900 -0.000000 -62.868600
4.808798 17.362776 1.294060 8.427483 -75.082841 9.797792 -10.550732 0.313477 0.675136 -8.537143 -0.119918 -19.313563 -2.232696 -1.127285 -2.773163 0.308178 6.343879 5.292826 2.137800 -0.000001 -38.624900 9.966580 0.044394 -2.379000 1.525106 -12.130872 -11.645354 1.712615 1.279288 -5.956684 -1.944606 -13.498657 7.762504 -4.725400 -0.000000 -62.696401
4.801393 17.362814 1.280164 8.231352 -74.366648 9.628274 -10.537054 0.344049 0.804842 -8.408950 -0.531422 -18.950194 -2.217095 -1.121335 -2.790646 0.301635 6.232909 5.416002 2.109300 0.000001 -38.748200 9.990418 -0.026098 -2.400968 1.519558 -12.400782 -11.089604 1.670408 1.271313 -5.991907 -2.044421 -13.929190 7.638825 -4.811600 0.000000 -62.520500
4.793297 17.362695 1.266201 8.061360 -73.650857 9.433910 -10.519254 0.377727 0.940248 -8.286734 -0.960972 -18.585404 -2.202159 -1.115685 -2.813690 0.296229 6.129963 5.541715 2.082900 0.000000 -38.860900 10.017126 -0.095480 -2.419729 1.506372 -12.668844 -10.533806 1.626835 1.264111 -6.032887 -2.148083 -14.366380 7.522075 -4.897999 0.000000 -62.341400
4.784561 17.362455 1.252273 7.913864 -72.930782 9.218182 -10.497405 0.413907 1.081293 -8.170789 -1.410528 -18.220286 -2.188027 -1.110253 -2.840165 0.291531 6.033541 5.669256 2.058300 0.000000 -38.963900 10.045281 -0.161242 -2.438564 1.486164 -12.939536 -10.012501 1.582019 1.251693 -6.002886 -2.245903 -14.805576 7.369308 -4.983900 0.000000 -62.160200
4.775117 17.362129 1.238463 7.785454 -72.202484 8.987689 -10.471975 0.452461 1.227507 -8.062499 -1.875011 -17.857125 -2.175630 -1.105336 -2.873306 0.287287 5.934956 5.802438 2.033100 -0.000000 -39.057500 10.074445 -0.222732 -2.458351 1.459948 -13.216543 -9.538289 1.536339 1.232527 -5.879773 -2.333777 -15.245301 7.169014 -5.069700 -0.000000 -61.977100
4.765155 17.361651 1.224738 7.678404 -71.466195 8.740416 -10.442879 0.492510 1.377474 -7.961676 -2.360949 -17.499151 -2.164136 -1.099776 -2.902129 0.282650 5.841062 5.934157 2.009801 -0.000000 -39.144201 10.105893 -0.281208 -2.481588 1.426128 -13.510503 -9.067436 1.490960 1.213452 -5.756849 -2.420856 -15.680979 6.973940 -5.153099 -0.000000 -61.795800
4.754661 17.361039 1.211189 7.591398 -70.719970 8.481057 -10.410515 0.533375 1.530189 -7.869614 -2.865691 -17.150761 -2.153985 -1.093553 -2.924804 0.277200 5.748437 6.064122 1.987700 -0.000000 -39.225900 10.139363 -0.336468 -2.509105 1.384748 -13.824377 -8.601485 1.446266 1.194729 -5.637016 -2.506698 -16.111057 6.785689 -5.234300 -0.000000 -61.617000
4.743621 17.360418 1.197853 7.520049 -69.961680 8.218002 -10.375732 0.574754 1.684244 -7.788575 -3.376706 -16.816793 -2.146665 -1.087234 -2.946830 0.270331 5.643165 6.199373 1.962900 -0.000000 -39.303500 10.174657 -0.389283 -2.538891 1.337795 -14.154975 -8.144167 1.402138 1.176966 -5.525126 -2.591903 -16.540439 6.608362 -5.316200 0.000001 -61.438600
4.732111 17.359794 1.184766 7.465347 -69.191062 7.953225 -10.338833 0.615588 1.838304 -7.719285 -3.892825 -16.502111 -2.142209 -1.080603 -2.962867 0.261200 5.525689 6.337166 1.936001 -0.000000 -39.379499 10.211399 -0.439358 -2.571589 1.285065 -14.502160 -7.696738 1.358701 1.160239 -5.423086 -2.676293 -16.968073 6.441651 -5.398699 0.000000 -61.261600
4.720137 17.359193 1.171921 7.426433 -68.407945 7.691195 -10.300325 0.655018 1.991083 -7.662767 -4.408784 -16.211687 -2.141073 -1.073828 -2.971697 0.249408 5.392104 6.477858 1.906000 0.000000 -39.455700 10.249225 -0.486802 -2.606353 1.227351 -14.862591 -7.262232 1.315890 1.144805 -5.333379 -2.760171 -17.395708 6.286069 -5.482900 0.000000 -61.086101
